<svg xmlns="http://www.w3.org/2000/svg" viewBox="0 0 64 64">
  <rect width="64" height="64" rx="14" fill="#1B3B2F"/>
  <g transform="translate(6,14)">
    <path d="M24 27 C16 25, 8 20, 5 10" stroke="#C9A227" stroke-width="1.6" stroke-linecap="round" fill="none"/>
    <path d="M6.5 12 C4 10, 3.5 6.5, 5 4 C7.5 5.5, 8.5 9, 6.5 12Z" fill="#C9A227"/>
    <path d="M10 18 C7 17, 5.5 13.5, 6.5 11 C9.5 12, 11 15.5, 10 18Z" fill="#C9A227"/>
    <path d="M16 23 C13 22.5, 10.5 19.5, 11 16.5 C14 17, 16.5 20, 16 23Z" fill="#C9A227"/>
    <path d="M23 26 C20 26, 17 23.5, 17 20.5 C20 20.5, 23 23, 23 26Z" fill="#C9A227"/>
    <path d="M28 27 C36 25, 44 20, 47 10" stroke="#C9A227" stroke-width="1.6" stroke-linecap="round" fill="none"/>
    <path d="M45.5 12 C48 10, 48.5 6.5, 47 4 C44.5 5.5, 43.5 9, 45.5 12Z" fill="#C9A227"/>
    <path d="M42 18 C45 17, 46.5 13.5, 45.5 11 C42.5 12, 41 15.5, 42 18Z" fill="#C9A227"/>
    <path d="M36 23 C39 22.5, 41.5 19.5, 41 16.5 C38 17, 35.5 20, 36 23Z" fill="#C9A227"/>
    <path d="M29 26 C32 26, 35 23.5, 35 20.5 C32 20.5, 29 23, 29 26Z" fill="#C9A227"/>
  </g>
  <text x="32" y="26" text-anchor="middle" font-family="Georgia, serif" font-style="italic" font-size="17" fill="#E3C55C">D</text>
</svg>
